<svg width="125" height="45" viewBox="0 0 125 45" fill="none" xmlns="http://www.w3.org/2000/svg">
<path d="M36 10.6147V17.2732C36 17.6932 35.7519 18.073 35.3686 18.2396L27.8101 21.5257C26.9683 21.8917 26.9683 23.0925 27.8101 23.4585L35.3686 26.7445C35.7519 26.9111 36 27.2909 36 27.7109V34.3694C36 35.152 35.1813 35.661 34.4855 35.311L18.5785 27.31C18.224 27.1316 18 26.7671 18 26.3683V18.6158C18 18.217 18.224 17.8525 18.5785 17.6742L34.4855 9.67309C35.1813 9.3231 36 9.83211 36 10.6147Z" fill="#F2F2F2"/>
<path d="M0 9.57946C0 9.1807 0.223956 8.81616 0.578498 8.63783L17.5305 0.111144C17.8251 -0.037048 18.1719 -0.0370481 18.4665 0.111144L25.1257 3.46065C25.897 3.84862 25.897 4.95593 25.1256 5.3439L9.57773 13.1644C9.22319 13.3427 8.99924 13.7072 8.99924 14.106V30.894C8.99924 31.2928 9.22319 31.6573 9.57773 31.8356L25.1256 39.6561C25.897 40.0441 25.897 41.1514 25.1257 41.5394L18.4665 44.8889C18.1719 45.037 17.8251 45.037 17.5305 44.8889L0.578498 36.3622C0.223956 36.1838 0 35.8193 0 35.4205V9.57946Z" fill="#F2F2F2"/>
<path d="M116.432 23.2879C116.432 22.4503 116.603 21.7085 116.946 21.0626C117.3 20.4167 117.774 19.9171 118.369 19.5639C118.975 19.2006 119.641 19.0189 120.368 19.0189C121.024 19.0189 121.594 19.1501 122.078 19.4125C122.573 19.6648 122.966 19.9827 123.259 20.3662V19.1552H125V27.4963H123.259V26.255C122.966 26.6486 122.568 26.9766 122.063 27.239C121.559 27.5014 120.983 27.6326 120.337 27.6326C119.621 27.6326 118.965 27.4509 118.369 27.0876C117.774 26.7142 117.3 26.1995 116.946 25.5435C116.603 24.8774 116.432 24.1256 116.432 23.2879ZM123.259 23.3182C123.259 22.7429 123.138 22.2434 122.896 21.8195C122.664 21.3956 122.356 21.0727 121.972 20.8506C121.589 20.6286 121.175 20.5176 120.731 20.5176C120.287 20.5176 119.873 20.6286 119.49 20.8506C119.106 21.0626 118.793 21.3805 118.551 21.8044C118.319 22.2181 118.203 22.7127 118.203 23.2879C118.203 23.8632 118.319 24.3678 118.551 24.8017C118.793 25.2357 119.106 25.5687 119.49 25.8009C119.883 26.0229 120.297 26.1339 120.731 26.1339C121.175 26.1339 121.589 26.0229 121.972 25.8009C122.356 25.5788 122.664 25.2559 122.896 24.832C123.138 24.398 123.259 23.8934 123.259 23.3182Z" fill="#F3F3F3"/>
<path d="M112.631 20.563V25.1802C112.631 25.4931 112.702 25.7201 112.843 25.8614C112.994 25.9926 113.247 26.0582 113.6 26.0582H114.66V27.4964H113.297C112.52 27.4964 111.925 27.3147 111.511 26.9514C111.097 26.5881 110.89 25.9977 110.89 25.1802V20.563H109.906V19.1552H110.89V17.0812H112.631V19.1552H114.66V20.563H112.631Z" fill="#F3F3F3"/>
<path d="M106.747 18.0501C106.434 18.0501 106.172 17.9441 105.96 17.7322C105.748 17.5203 105.642 17.2579 105.642 16.945C105.642 16.6321 105.748 16.3697 105.96 16.1578C106.172 15.9459 106.434 15.8399 106.747 15.8399C107.05 15.8399 107.307 15.9459 107.519 16.1578C107.731 16.3697 107.837 16.6321 107.837 16.945C107.837 17.2579 107.731 17.5203 107.519 17.7322C107.307 17.9441 107.05 18.0501 106.747 18.0501ZM107.595 19.1552V27.4964H105.869V19.1552H107.595Z" fill="#F3F3F3"/>
<path d="M101.028 20.3662C101.28 19.9424 101.613 19.6144 102.027 19.3822C102.451 19.14 102.951 19.0189 103.526 19.0189V20.8052H103.087C102.411 20.8052 101.896 20.9768 101.543 21.3199C101.2 21.6631 101.028 22.2585 101.028 23.1062V27.4963H99.3024V19.1552H101.028V20.3662Z" fill="#F3F3F3"/>
<path d="M87.7105 23.2879C87.7105 22.4503 87.8821 21.7085 88.2252 21.0626C88.5784 20.4167 89.0528 19.9171 89.6482 19.5639C90.2537 19.2006 90.9198 19.0189 91.6465 19.0189C92.3024 19.0189 92.8727 19.1501 93.3571 19.4125C93.8516 19.6648 94.2452 19.9827 94.5379 20.3662V19.1552H96.2788V27.4963H94.5379V26.255C94.2452 26.6486 93.8465 26.9766 93.3419 27.239C92.8373 27.5014 92.2621 27.6326 91.6162 27.6326C90.8996 27.6326 90.2436 27.4509 89.6482 27.0876C89.0528 26.7142 88.5784 26.1995 88.2252 25.5435C87.8821 24.8774 87.7105 24.1256 87.7105 23.2879ZM94.5379 23.3182C94.5379 22.7429 94.4168 22.2434 94.1745 21.8195C93.9424 21.3956 93.6346 21.0727 93.2511 20.8506C92.8676 20.6286 92.4538 20.5176 92.0098 20.5176C91.5657 20.5176 91.1519 20.6286 90.7684 20.8506C90.3849 21.0626 90.0721 21.3805 89.8299 21.8044C89.5977 22.2181 89.4817 22.7127 89.4817 23.2879C89.4817 23.8632 89.5977 24.3678 89.8299 24.8017C90.0721 25.2357 90.3849 25.5687 90.7684 25.8009C91.162 26.0229 91.5758 26.1339 92.0098 26.1339C92.4538 26.1339 92.8676 26.0229 93.2511 25.8009C93.6346 25.5788 93.9424 25.2559 94.1745 24.832C94.4168 24.398 94.5379 23.8934 94.5379 23.3182Z" fill="#F3F3F3"/>
<path d="M77.8765 23.3182C77.8765 22.4603 78.0481 21.7085 78.3912 21.0626C78.7445 20.4066 79.2289 19.902 79.8445 19.5488C80.4601 19.1955 81.1666 19.0189 81.9639 19.0189C82.9731 19.0189 83.8057 19.2611 84.4617 19.7456C85.1277 20.2199 85.5768 20.9011 85.809 21.7892H83.947C83.7956 21.3754 83.5534 21.0525 83.2203 20.8204C82.8873 20.5883 82.4685 20.4722 81.9639 20.4722C81.2574 20.4722 80.6922 20.7245 80.2684 21.2291C79.8546 21.7236 79.6477 22.42 79.6477 23.3182C79.6477 24.2164 79.8546 24.9178 80.2684 25.4224C80.6922 25.927 81.2574 26.1793 81.9639 26.1793C82.963 26.1793 83.624 25.7403 83.947 24.8623H85.809C85.5668 25.71 85.1126 26.3862 84.4465 26.8908C83.7804 27.3853 82.9529 27.6326 81.9639 27.6326C81.1666 27.6326 80.4601 27.456 79.8445 27.1027C79.2289 26.7394 78.7445 26.2348 78.3912 25.5889C78.0481 24.9329 77.8765 24.176 77.8765 23.3182Z" fill="#F3F3F3"/>
<path d="M72.636 27.6326C71.98 27.6326 71.3896 27.5165 70.8648 27.2844C70.3501 27.0422 69.9414 26.7192 69.6386 26.3156C69.3358 25.9018 69.1744 25.4426 69.1542 24.938H70.9405C70.9708 25.2912 71.1373 25.5889 71.44 25.8311C71.7529 26.0633 72.1415 26.1793 72.6057 26.1793C73.0901 26.1793 73.4635 26.0885 73.7259 25.9068C73.9984 25.7151 74.1347 25.4729 74.1347 25.1802C74.1347 24.8673 73.9833 24.6352 73.6805 24.4838C73.3878 24.3324 72.9186 24.1659 72.2727 23.9843C71.6469 23.8127 71.1373 23.6462 70.7437 23.4847C70.3501 23.3232 70.007 23.076 69.7143 22.7429C69.4317 22.4099 69.2904 21.9709 69.2904 21.4259C69.2904 20.9818 69.4216 20.5782 69.684 20.2148C69.9464 19.8414 70.3198 19.5488 70.8042 19.3368C71.2988 19.1249 71.8639 19.0189 72.4997 19.0189C73.4484 19.0189 74.2103 19.2611 74.7856 19.7456C75.3709 20.2199 75.6838 20.8708 75.7242 21.6984H73.9984C73.9681 21.325 73.8168 21.0273 73.5443 20.8052C73.2718 20.5832 72.9034 20.4722 72.4392 20.4722C71.985 20.4722 71.6368 20.558 71.3946 20.7295C71.1524 20.9011 71.0313 21.1282 71.0313 21.4108C71.0313 21.6328 71.1121 21.8195 71.2735 21.9709C71.435 22.1223 71.6318 22.2434 71.8639 22.3342C72.096 22.4149 72.4392 22.5209 72.8933 22.6521C73.4988 22.8136 73.9934 22.9801 74.3769 23.1517C74.7705 23.3131 75.1086 23.5553 75.3911 23.8783C75.6737 24.2012 75.82 24.6302 75.8301 25.165C75.8301 25.6394 75.6989 26.0633 75.4365 26.4367C75.1741 26.8101 74.8007 27.1027 74.3163 27.3147C73.842 27.5266 73.2819 27.6326 72.636 27.6326Z" fill="#F3F3F3"/>
<path d="M58.0165 23.2879C58.0165 22.4503 58.188 21.7085 58.5312 21.0626C58.8844 20.4167 59.3587 19.9171 59.9542 19.5639C60.5597 19.2006 61.2258 19.0189 61.9524 19.0189C62.6084 19.0189 63.1786 19.1501 63.663 19.4125C64.1576 19.6648 64.5512 19.9827 64.8438 20.3662V19.1552H66.5847V27.4963H64.8438V26.255C64.5512 26.6486 64.1525 26.9766 63.6479 27.239C63.1433 27.5014 62.568 27.6326 61.9221 27.6326C61.2056 27.6326 60.5496 27.4509 59.9542 27.0876C59.3587 26.7142 58.8844 26.1995 58.5312 25.5435C58.188 24.8774 58.0165 24.1256 58.0165 23.2879ZM64.8438 23.3182C64.8438 22.7429 64.7227 22.2434 64.4805 21.8195C64.2484 21.3956 63.9406 21.0727 63.5571 20.8506C63.1736 20.6286 62.7598 20.5176 62.3157 20.5176C61.8717 20.5176 61.4579 20.6286 61.0744 20.8506C60.6909 21.0626 60.378 21.3805 60.1358 21.8044C59.9037 22.2181 59.7877 22.7127 59.7877 23.2879C59.7877 23.8632 59.9037 24.3678 60.1358 24.8017C60.378 25.2357 60.6909 25.5687 61.0744 25.8009C61.468 26.0229 61.8818 26.1339 62.3157 26.1339C62.7598 26.1339 63.1736 26.0229 63.5571 25.8009C63.9406 25.5788 64.2484 25.2559 64.4805 24.832C64.7227 24.398 64.8438 23.8934 64.8438 23.3182Z" fill="#F3F3F3"/>
<path d="M48.1826 23.3182C48.1826 22.4603 48.3541 21.7085 48.6973 21.0626C49.0505 20.4066 49.5349 19.902 50.1505 19.5488C50.7662 19.1955 51.4726 19.0189 52.2699 19.0189C53.2791 19.0189 54.1117 19.2611 54.7677 19.7456C55.4338 20.2199 55.8829 20.9011 56.115 21.7892H54.253C54.1016 21.3754 53.8594 21.0525 53.5264 20.8204C53.1933 20.5883 52.7745 20.4722 52.2699 20.4722C51.5634 20.4722 50.9983 20.7245 50.5744 21.2291C50.1606 21.7236 49.9537 22.42 49.9537 23.3182C49.9537 24.2164 50.1606 24.9178 50.5744 25.4224C50.9983 25.927 51.5634 26.1793 52.2699 26.1793C53.269 26.1793 53.93 25.7403 54.253 24.8623H56.115C55.8728 25.71 55.4186 26.3862 54.7526 26.8908C54.0865 27.3853 53.2589 27.6326 52.2699 27.6326C51.4726 27.6326 50.7662 27.456 50.1505 27.1027C49.5349 26.7394 49.0505 26.2348 48.6973 25.5889C48.3541 24.9329 48.1826 24.176 48.1826 23.3182Z" fill="#F3F3F3"/>
</svg>
